<svg xmlns="http://www.w3.org/2000/svg" width="1200" height="700" viewBox="0 0 1200 700">
  <defs>
    <style>
      .a {
        fill: #eeefed;
      }

      .b {
        fill: #f9b443;
      }

      .c {
        fill: none;
        stroke: #000;
        stroke-miterlimit: 10;
        stroke-width: 4px;
      }

      .d {
        fill: #e72b78;
      }

      .e {
        fill: #fff;
      }
    </style>
  </defs>
  <rect class="a" x="18.165" y="15.6597" width="1163.67" height="668.6807" rx="41.4371" transform="translate(1200 700) rotate(-180)"/>
  <rect class="b" x="800.1988" y="592.4106" width="271.9927" height="57.7199" rx="20"/>
  <g>
    <path d="M857.1785,611.736h4.4277a1.5506,1.5506,0,0,1,1.7168,1.7168l.8135,19.0664H859.8l-.6934-17.1992h-.5117l-3.1328,12.8623a1.7012,1.7012,0,0,1-1.8672,1.4756h-3.0117a1.7017,1.7017,0,0,1-1.8682-1.4756L845.5525,615.32H845.04l-.6015,17.1992H840.1l.7529-19.0664a1.5687,1.5687,0,0,1,1.7168-1.7168h4.4277a1.6927,1.6927,0,0,1,1.8077,1.4756l2.53,10.3613q.24.9946.542,2.9219h.3916q.0294-.1494.2256-1.2344t.3164-1.6875l2.5-10.3613A1.75,1.75,0,0,1,857.1785,611.736Z"/>
    <path d="M868.0516,620.9831l-.4209-3.0117a43.5126,43.5126,0,0,1,7.74-.7237,6.6813,6.6813,0,0,1,4.4277,1.2207q1.4166,1.2188,1.416,4.2315v9.8193H877.69l-.4511-2.2588a6.9283,6.9283,0,0,1-5.4825,2.62,5.2717,5.2717,0,0,1-3.4941-1.13,3.873,3.873,0,0,1-1.3555-3.1475v-1.5059a3.3913,3.3913,0,0,1,1.2051-2.77,5.1034,5.1034,0,0,1,3.3438-.9941h5.3007V622.67a1.9565,1.9565,0,0,0-.5273-1.5361,3.2853,3.2853,0,0,0-1.9121-.3916Q871.8475,620.7419,868.0516,620.9831Zm3.2539,6.4453v.5723q0,1.5366,1.7461,1.5361a6.1469,6.1469,0,0,0,3.705-1.4453v-2.0781h-4.0058A1.2808,1.2808,0,0,0,871.3055,627.4284Z"/>
    <path d="M886.0642,611.1032h1.9874a1.146,1.146,0,0,1,1.2959,1.2959v1.626a1.1453,1.1453,0,0,1-1.2959,1.2949h-1.9874a1.1448,1.1448,0,0,1-1.2958-1.2949v-1.626A1.1455,1.1455,0,0,1,886.0642,611.1032Zm3.2227,21.416h-4.4277V617.67h4.4277Z"/>
    <path d="M896.6658,617.67l.3311,2.1992a10.1345,10.1345,0,0,1,6.3554-2.6211,4.2144,4.2144,0,0,1,3.0869,1.0547,4.1284,4.1284,0,0,1,1.0694,3.0723v11.1445h-4.4277V622.76a2.1959,2.1959,0,0,0-.3165-1.3711,1.4126,1.4126,0,0,0-1.1289-.3759,10.3967,10.3967,0,0,0-4.1269,1.3554v10.15h-4.458V617.67Z"/>
    <path d="M916.8758,620.652V627.67a1.5492,1.5492,0,0,0,.3623,1.1748,1.8677,1.8677,0,0,0,1.2646.3311H920.4l.4824,3.1025a12.7378,12.7378,0,0,1-4.1875.6025,4.1973,4.1973,0,0,1-3.1318-1.13,4.2868,4.2868,0,0,1-1.1153-3.1475V620.652h-2.62V617.82l2.62-.15v-4.1562h4.4278V617.67h4.1269v2.9824Z"/>
    <path d="M932.9305,626.5856h-5.3614a3.075,3.075,0,0,0,.9795,2.1836,4.4333,4.4333,0,0,0,2.5449.5576,53.8128,53.8128,0,0,0,5.542-.332l.4219,2.7715a15.26,15.26,0,0,1-6.4756,1.1142q-4.188,0-5.9638-1.8066-1.7784-1.8077-1.7774-5.9639,0-4.3682,1.7315-6.1152t5.8281-1.7471q3.7061,0,5.3623,1.28a4.6982,4.6982,0,0,1,1.6865,3.9,4.1636,4.1636,0,0,1-1.0693,3.1182A4.8234,4.8234,0,0,1,932.9305,626.5856Zm-5.4512-2.6806h4.2168a1.2913,1.2913,0,0,0,1.1-.3916,1.9275,1.9275,0,0,0,.2861-1.1446,1.72,1.72,0,0,0-.5429-1.4609,3.4848,3.4848,0,0,0-1.9873-.4072,3.1753,3.1753,0,0,0-2.35.6777A4.46,4.46,0,0,0,927.4793,623.905Z"/>
    <path d="M943.9549,617.67l.331,2.1992a10.1348,10.1348,0,0,1,6.3555-2.6211,4.2147,4.2147,0,0,1,3.0869,1.0547,4.1284,4.1284,0,0,1,1.0693,3.0723v11.1445H950.37V622.76a2.1966,2.1966,0,0,0-.3164-1.3711,1.4128,1.4128,0,0,0-1.1289-.3759,10.3975,10.3975,0,0,0-4.127,1.3554v10.15H940.34V617.67Z"/>
    <path d="M958.7732,620.9831l-.4209-3.0117a43.5137,43.5137,0,0,1,7.74-.7237,6.6815,6.6815,0,0,1,4.4277,1.2207q1.4165,1.2188,1.416,4.2315v9.8193h-3.5244l-.4512-2.2588a6.9279,6.9279,0,0,1-5.4824,2.62,5.2716,5.2716,0,0,1-3.4941-1.13,3.873,3.873,0,0,1-1.3555-3.1475v-1.5059a3.3913,3.3913,0,0,1,1.2051-2.77,5.1033,5.1033,0,0,1,3.3437-.9941h5.3008V622.67a1.9565,1.9565,0,0,0-.5273-1.5361,3.2853,3.2853,0,0,0-1.9121-.3916Q962.5692,620.7419,958.7732,620.9831Zm3.2539,6.4453v.5723q0,1.5366,1.7461,1.5361a6.1469,6.1469,0,0,0,3.7051-1.4453v-2.0781h-4.0058Q962.0267,626.0441,962.0271,627.4284Z"/>
    <path d="M979.075,617.67l.331,2.1992a10.1348,10.1348,0,0,1,6.3555-2.6211,4.2147,4.2147,0,0,1,3.0869,1.0547,4.1284,4.1284,0,0,1,1.0694,3.0723v11.1445H985.49V622.76a2.196,2.196,0,0,0-.3164-1.3711,1.4126,1.4126,0,0,0-1.1289-.3759,10.3967,10.3967,0,0,0-4.1269,1.3554v10.15H975.46V617.67Z"/>
    <path d="M1005.6707,628.9948l.3916,2.8916a14.49,14.49,0,0,1-5.7529.9941q-4.0972,0-5.7676-1.7617-1.6728-1.7622-1.6719-6.039,0-4.3081,1.6865-6.0694t5.8135-1.7627a13.67,13.67,0,0,1,5.4815.9336l-.4815,2.7715q-3.2534-.06-4.2471-.0605a3.6464,3.6464,0,0,0-2.8164.874,7.5254,7.5254,0,0,0,0,6.626,3.6426,3.6426,0,0,0,2.8164.874A33.1364,33.1364,0,0,0,1005.6707,628.9948Z"/>
    <path d="M1018.0193,626.5856h-5.3613a3.0746,3.0746,0,0,0,.98,2.1836,4.4333,4.4333,0,0,0,2.5449.5576,53.8128,53.8128,0,0,0,5.542-.332l.4219,2.7715a15.26,15.26,0,0,1-6.4756,1.1142q-4.188,0-5.9639-1.8066-1.7783-1.8077-1.7773-5.9639,0-4.3682,1.7314-6.1152t5.8282-1.7471q3.7061,0,5.3623,1.28a4.6982,4.6982,0,0,1,1.6865,3.9,4.1637,4.1637,0,0,1-1.0694,3.1182A4.8231,4.8231,0,0,1,1018.0193,626.5856Zm-5.4511-2.6806h4.2168a1.2914,1.2914,0,0,0,1.1-.3916,1.9275,1.9275,0,0,0,.2861-1.1446,1.7192,1.7192,0,0,0-.543-1.4609,3.4843,3.4843,0,0,0-1.9873-.4072,3.1752,3.1752,0,0,0-2.35.6777A4.4586,4.4586,0,0,0,1012.5682,623.905Z"/>
  </g>
  <path class="c" d="M364.4619,75.06h80.5292a12.0353,12.0353,0,0,1,12,12V144.885"/>
  <polygon points="456.991 131.338 467.709 131.338 462.35 140.62 456.991 149.902 451.632 140.62 446.273 131.338 456.991 131.338"/>
  <path class="c" d="M511.462,184.06h80.5293a12.0353,12.0353,0,0,1,12,12v57.8249"/>
  <polygon points="603.991 240.338 614.709 240.338 609.35 249.62 603.991 258.902 598.632 249.62 593.273 240.338 603.991 240.338"/>
  <path class="c" d="M650.4622,294.06h80.5292a12.0353,12.0353,0,0,1,12,12v57.8249"/>
  <polygon points="742.991 350.338 753.709 350.338 748.35 359.62 742.991 368.902 737.632 359.62 732.273 350.338 742.991 350.338"/>
  <path class="c" d="M770.4623,403.0605h80.5292a12.0353,12.0353,0,0,1,12,12v57.8249"/>
  <polygon points="862.992 459.338 873.71 459.338 868.351 468.62 862.992 477.902 857.632 468.62 852.273 459.338 862.992 459.338"/>
  <path class="c" d="M891.4624,513.0606h80.5292a12.0353,12.0353,0,0,1,12,12v57.8249"/>
  <polygon points="983.992 569.338 994.71 569.338 989.351 578.62 983.992 587.902 978.633 578.62 973.274 569.338 983.992 569.338"/>
  <rect class="b" x="127.8085" y="49.8695" width="271.9927" height="57.7199" rx="20"/>
  <g>
    <path d="M211.367,84.5261h-7.1387l-1.5068,5.4521h-4.6983L204.0174,70.4a1.4379,1.4379,0,0,1,.5722-.874,1.6879,1.6879,0,0,1,1.0235-.3311h4.3379A1.4776,1.4776,0,0,1,211.5476,70.4l5.9932,19.5781h-4.668Zm-.9942-3.5538-1.747-6.3554q-.3618-1.5058-.4219-1.958H207.39q-.06.3016-.2109.9638t-.24.9942l-1.747,6.3554Z"/>
    <path d="M223.0232,75.1286l.3311,2.1992a10.134,10.134,0,0,1,6.3555-2.6211,4.2147,4.2147,0,0,1,3.0869,1.0547,4.1282,4.1282,0,0,1,1.0693,3.0723V89.9782h-4.4277V80.2194a2.1966,2.1966,0,0,0-.3164-1.3711,1.4124,1.4124,0,0,0-1.1289-.376,10.3971,10.3971,0,0,0-4.127,1.3555v10.15h-4.458v-14.85Z"/>
    <path d="M237.8416,78.4421l-.4209-3.0117a43.5126,43.5126,0,0,1,7.74-.7237,6.6812,6.6812,0,0,1,4.4278,1.2207q1.4164,1.2188,1.416,4.2315v9.8193H247.48l-.4512-2.2588a6.9281,6.9281,0,0,1-5.4824,2.62,5.2713,5.2713,0,0,1-3.4942-1.13,3.8726,3.8726,0,0,1-1.3554-3.1474V84.5563a3.3912,3.3912,0,0,1,1.205-2.77,5.1031,5.1031,0,0,1,3.3438-.9941h5.3008v-.6631a1.9561,1.9561,0,0,0-.5274-1.5361,3.2848,3.2848,0,0,0-1.9121-.3916Q241.6375,78.2009,237.8416,78.4421Zm3.2539,6.4453V85.46q0,1.5368,1.7461,1.5362a6.1478,6.1478,0,0,0,3.7051-1.4453V83.4723h-4.0059Q241.095,83.5032,241.0955,84.8874Z"/>
    <path d="M258.9861,68.8942V85.1286q0,1.5073,1.6875,1.5059h1.2041l.5127,3.1025a7.9768,7.9768,0,0,1-3.5547.6025,4.4089,4.4089,0,0,1-3.1328-1.0693,3.9393,3.9393,0,0,1-1.1445-3.0273V68.8942Z"/>
    <path d="M278.4451,75.1286l-5.2705,15.06a12.0487,12.0487,0,0,1-1.0391,2.2286,10.137,10.137,0,0,1-1.582,1.9736,5.88,5.88,0,0,1-2.3945,1.4,7.5117,7.5117,0,0,1-3.1778.2412l-.3613-2.6211a8.2829,8.2829,0,0,0,2.8311-1.25,5.09,5.09,0,0,0,1.5966-2.0635l.0606-.12h-.8438a1.3874,1.3874,0,0,1-1.4453-1.084l-4.85-13.7656h4.7588L269.5,84.737q.2711,1.0547.4512,2.23h.3916q.0908-.3618.3017-1.13c.14-.5117.2412-.8779.3008-1.1l2.7412-9.6084Z"/>
    <path d="M287.0291,84.4665l-3.7051-.9942a5.3282,5.3282,0,0,1-2.831-1.6416,4.6832,4.6832,0,0,1-.7832-2.8769,3.6666,3.6666,0,0,1,1.4306-3.2832q1.4312-.9624,4.8946-.9639a43.5139,43.5139,0,0,1,6.8681.5723l-.3017,2.8623q-3.7955-.06-5.7227-.0606-1.0547,0-1.4609.0147a4.6344,4.6344,0,0,0-.8135.1055q-.4058.0907-.4971.2861a1.4826,1.4826,0,0,0-.09.5879,2.262,2.262,0,0,0,.0146.27.6.6,0,0,0,.0752.2266,1.5646,1.5646,0,0,0,.1055.165.61.61,0,0,0,.166.1357,1.2281,1.2281,0,0,0,.1953.1055c.0508.02.1406.0557.2715.1055s.2305.0859.3008.1054.2012.0557.3916.1055.3369.0859.4375.1055l3.7949,1.0234a5.93,5.93,0,0,1,2.8311,1.5215,4.122,4.122,0,0,1,.8437,2.8164q0,2.6514-1.5361,3.6t-5.2715.9483a40.2478,40.2478,0,0,1-6.6563-.5118l.2705-2.8916q1.0855.06,5.1514.0606A14.3012,14.3012,0,0,0,288.43,86.77a.8722.8722,0,0,0,.708-.9189,2.2523,2.2523,0,0,0-.0147-.2706.6142.6142,0,0,0-.0752-.2255.8228.8228,0,0,0-.121-.1661.9482.9482,0,0,0-.1954-.1357q-.1362-.0747-.2109-.12a1.9029,1.9029,0,0,0-.2861-.1211q-.2111-.0747-.3311-.1055-.1215-.0292-.4219-.1054A3.7661,3.7661,0,0,1,287.0291,84.4665Z"/>
    <path d="M297.6316,68.5622h1.9873a1.1459,1.1459,0,0,1,1.2959,1.2959v1.626a1.1453,1.1453,0,0,1-1.2959,1.2949h-1.9873a1.1449,1.1449,0,0,1-1.2959-1.2949v-1.626A1.1456,1.1456,0,0,1,297.6316,68.5622Zm3.2227,21.416h-4.4277v-14.85h4.4277Z"/>
    <path d="M311.2146,84.4665l-3.705-.9942a5.3286,5.3286,0,0,1-2.8311-1.6416,4.6832,4.6832,0,0,1-.7832-2.8769,3.6667,3.6667,0,0,1,1.4307-3.2832q1.4312-.9624,4.8945-.9639a43.5153,43.5153,0,0,1,6.8682.5723l-.3018,2.8623q-3.7955-.06-5.7227-.0606-1.0547,0-1.4609.0147a4.6344,4.6344,0,0,0-.8135.1055q-.4058.0907-.497.2861a1.4824,1.4824,0,0,0-.09.5879,2.24,2.24,0,0,0,.0147.27.5963.5963,0,0,0,.0752.2266,1.5663,1.5663,0,0,0,.1054.165.6119.6119,0,0,0,.166.1357,1.2283,1.2283,0,0,0,.1954.1055c.0507.02.1406.0557.2714.1055s.2305.0859.3008.1054.2012.0557.3916.1055.3369.0859.4375.1055l3.795,1.0234a5.93,5.93,0,0,1,2.831,1.5215,4.122,4.122,0,0,1,.8438,2.8164q0,2.6514-1.5362,3.6t-5.2715.9483a40.2466,40.2466,0,0,1-6.6562-.5118l.27-2.8916q1.0854.06,5.1514.0606a14.2993,14.2993,0,0,0,3.0263-.1963.8722.8722,0,0,0,.708-.9189,2.2536,2.2536,0,0,0-.0146-.2706.6179.6179,0,0,0-.0752-.2255.8228.8228,0,0,0-.1211-.1661.947.947,0,0,0-.1953-.1357q-.1362-.0747-.2109-.12a1.9054,1.9054,0,0,0-.2862-.1211q-.2109-.0747-.331-.1055-.1216-.0292-.4219-.1054A3.7631,3.7631,0,0,1,311.2146,84.4665Z"/>
  </g>
  <rect class="d" x="274.7257" y="154.1962" width="271.9927" height="57.7199"/>
  <g>
    <path class="e" d="M364.0193,194.3044V173.5212q4.2774-.2711,8.0723-.2715,4.97,0,6.9131,2.29,1.9423,2.2881,1.9424,8.3731t-1.9424,8.373q-1.9439,2.29-6.9131,2.29Q368.2962,194.5759,364.0193,194.3044Zm4.5782-17.4395v14.0664q.5125,0,1.6718.0147t1.8223.0146a3.3577,3.3577,0,0,0,3.1777-1.4756q.8585-1.4751.8584-5.5722t-.8584-5.5869a3.3472,3.3472,0,0,0-3.1777-1.4913Z"/>
    <path class="e" d="M393.6873,188.3708H388.326a3.0746,3.0746,0,0,0,.9795,2.1836,4.4339,4.4339,0,0,0,2.5449.5576,53.8427,53.8427,0,0,0,5.542-.332l.4218,2.7714a15.26,15.26,0,0,1-6.4755,1.1143q-4.188,0-5.9639-1.8066-1.7784-1.8077-1.7773-5.9639,0-4.3681,1.7314-6.1152t5.8281-1.7471q3.7061,0,5.3623,1.28a4.6985,4.6985,0,0,1,1.6866,3.9,4.1633,4.1633,0,0,1-1.0694,3.1181A4.823,4.823,0,0,1,393.6873,188.3708Zm-5.4512-2.6807h4.2168a1.291,1.291,0,0,0,1.1-.3916,1.9264,1.9264,0,0,0,.2862-1.1445,1.72,1.72,0,0,0-.543-1.461,3.4852,3.4852,0,0,0-1.9873-.4072,3.1752,3.1752,0,0,0-2.35.6778A4.4591,4.4591,0,0,0,388.2361,185.69Z"/>
    <path class="e" d="M407.6932,188.7927l-3.7051-.9942a5.3292,5.3292,0,0,1-2.8311-1.6416,4.6841,4.6841,0,0,1-.7832-2.8769,3.6667,3.6667,0,0,1,1.4307-3.2832q1.4311-.9624,4.8945-.9639a43.5034,43.5034,0,0,1,6.8682.5723l-.3018,2.8623q-3.7955-.06-5.7226-.0606-1.0548,0-1.461.0147a4.6413,4.6413,0,0,0-.8134.1054q-.4059.0909-.4971.2862a1.482,1.482,0,0,0-.09.5879,2.241,2.241,0,0,0,.0147.27.597.597,0,0,0,.0752.2265,1.58,1.58,0,0,0,.1054.1651.6111.6111,0,0,0,.1661.1357,1.232,1.232,0,0,0,.1953.1055c.0508.0205.1406.0556.2715.1054s.23.086.3007.1055.2012.0557.3916.1055.337.0859.4375.1055l3.795,1.0234a5.9288,5.9288,0,0,1,2.831,1.5215,4.122,4.122,0,0,1,.8438,2.8164q0,2.6514-1.5362,3.6t-5.2714.9482a40.2583,40.2583,0,0,1-6.6563-.5117l.27-2.8916q1.0854.06,5.1514.0606a14.3064,14.3064,0,0,0,3.0263-.1963.8724.8724,0,0,0,.7081-.919,2.2517,2.2517,0,0,0-.0147-.27.6159.6159,0,0,0-.0752-.2256.8208.8208,0,0,0-.1211-.166.947.947,0,0,0-.1953-.1357q-.1362-.0747-.2109-.12a1.89,1.89,0,0,0-.2862-.1211q-.2109-.0747-.331-.1055-.1216-.0293-.4219-.1055A3.74,3.74,0,0,1,407.6932,188.7927Z"/>
    <path class="e" d="M418.2957,172.8884h1.9873a1.1459,1.1459,0,0,1,1.2959,1.2959V175.81a1.1453,1.1453,0,0,1-1.2959,1.295h-1.9873A1.1449,1.1449,0,0,1,417,175.81v-1.6259A1.1455,1.1455,0,0,1,418.2957,172.8884Zm3.2227,21.416h-4.4278v-14.85h4.4278Z"/>
    <path class="e" d="M440.283,181.4128l-1.8682.2412a5.4582,5.4582,0,0,1,.3614,2.1387,4.1678,4.1678,0,0,1-1.5508,3.6748q-1.5513,1.0839-5.4365,1.0839a21.6193,21.6193,0,0,1-2.5606-.15,1.0724,1.0724,0,0,0-.1357,1.0839,1.1,1.1,0,0,0,1.0088.6924l5.3916.6328a5.3248,5.3248,0,0,1,3.2988,1.3252,4.3267,4.3267,0,0,1,1.0088,3.1026q0,2.8315-1.7022,3.8252T432,200.0573q-4.579,0-6.2051-.9482a3.6818,3.6818,0,0,1-1.6269-3.48,3.16,3.16,0,0,1,.5273-1.8828,4.549,4.549,0,0,1,1.8223-1.34A2.99,2.99,0,0,1,427,187.8288q-2.2-1.0239-2.1992-4.0068a4.1817,4.1817,0,0,1,1.5664-3.7041q1.5659-1.0855,5.4512-1.085a14.9745,14.9745,0,0,1,3.8857.4219h4.7891Zm-7.1689,12.3193-3.7354-.3916a2.22,2.22,0,0,0-.9639,1.7168q0,1.084.6631,1.3857a13.63,13.63,0,0,0,5.7676-.0156,1.2833,1.2833,0,0,0,.708-1.31q0-.7837-.4521-.9942A8.0084,8.0084,0,0,0,433.1141,193.7321Zm-1.3252-8.0117a4.24,4.24,0,0,0,2.2431-.4219,1.693,1.693,0,0,0,.6182-1.5058,1.6689,1.6689,0,0,0-.6026-1.5069,4.52,4.52,0,0,0-2.2587-.3916,4.6125,4.6125,0,0,0-2.2745.3916,1.649,1.649,0,0,0-.6171,1.5069,1.6926,1.6926,0,0,0,.6171,1.5058A4.3231,4.3231,0,0,0,431.7889,185.72Z"/>
    <path class="e" d="M446.3367,179.4548l.3311,2.1992a10.134,10.134,0,0,1,6.3554-2.6211,4.2144,4.2144,0,0,1,3.0869,1.0547A4.1282,4.1282,0,0,1,457.18,183.16v11.1446h-4.4278v-9.7588a2.1958,2.1958,0,0,0-.3164-1.3711,1.4123,1.4123,0,0,0-1.1289-.376,10.3973,10.3973,0,0,0-4.1269,1.3555v10.15h-4.458v-14.85Z"/>
  </g>
  <rect class="b" x="409.7531" y="263.3747" width="271.9927" height="57.7199" rx="20"/>
  <g>
    <path d="M449.0467,303.4831V282.7q4.2772-.2711,8.0722-.2715,4.97,0,6.9131,2.29,1.9424,2.2881,1.9424,8.3731t-1.9424,8.373q-1.9438,2.29-6.9131,2.29Q453.3236,303.7546,449.0467,303.4831Zm4.5781-17.4395V300.11q.5127,0,1.6719.0147t1.8222.0146a3.3581,3.3581,0,0,0,3.1778-1.4755q.8583-1.4751.8584-5.5723t-.8584-5.5869a3.3474,3.3474,0,0,0-3.1778-1.4912Z"/>
    <path d="M478.7146,297.55h-5.3613a3.0746,3.0746,0,0,0,.98,2.1836,4.4333,4.4333,0,0,0,2.5449.5576,53.8128,53.8128,0,0,0,5.542-.332l.4219,2.7715a15.262,15.262,0,0,1-6.4756,1.1142q-4.188,0-5.9639-1.8066-1.7782-1.8077-1.7773-5.9639,0-4.3681,1.7314-6.1152t5.8282-1.7471q3.7061,0,5.3623,1.28a4.6982,4.6982,0,0,1,1.6865,3.9,4.1636,4.1636,0,0,1-1.0693,3.1181A4.8231,4.8231,0,0,1,478.7146,297.55Zm-5.4511-2.6807H477.48a1.291,1.291,0,0,0,1.1-.3916,1.9271,1.9271,0,0,0,.2861-1.1445,1.7192,1.7192,0,0,0-.543-1.4609,3.4842,3.4842,0,0,0-1.9873-.4073,3.1752,3.1752,0,0,0-2.35.6778A4.4585,4.4585,0,0,0,473.2635,294.8688Z"/>
    <path d="M500.8533,288.6335l-4.88,13.7949a1.4116,1.4116,0,0,1-1.4453,1.0547h-3.8555a1.4118,1.4118,0,0,1-1.4453-1.0547l-4.88-13.7949h4.7285l2.6806,9.3076q.3311,1.2348.6328,2.65h.3916l.6924-2.65,2.6817-9.3076Z"/>
    <path d="M512.1189,297.55h-5.3613a3.0746,3.0746,0,0,0,.9795,2.1836,4.4333,4.4333,0,0,0,2.5449.5576,53.8128,53.8128,0,0,0,5.542-.332l.4219,2.7715a15.262,15.262,0,0,1-6.4756,1.1142q-4.188,0-5.9639-1.8066-1.7783-1.8077-1.7773-5.9639,0-4.3681,1.7314-6.1152t5.8282-1.7471q3.7061,0,5.3623,1.28a4.6982,4.6982,0,0,1,1.6865,3.9,4.1636,4.1636,0,0,1-1.0693,3.1181A4.8231,4.8231,0,0,1,512.1189,297.55Zm-5.4511-2.6807h4.2168a1.291,1.291,0,0,0,1.1-.3916,1.9271,1.9271,0,0,0,.2861-1.1445,1.7192,1.7192,0,0,0-.543-1.4609,3.4842,3.4842,0,0,0-1.9873-.4073,3.1752,3.1752,0,0,0-2.35.6778A4.4585,4.4585,0,0,0,506.6678,294.8688Z"/>
    <path d="M523.9861,282.3991v16.2344q0,1.5073,1.6875,1.5058h1.2041l.5127,3.1026a7.9782,7.9782,0,0,1-3.5547.6025,4.4089,4.4089,0,0,1-3.1328-1.0693,3.9393,3.9393,0,0,1-1.1445-3.0274V282.3991Z"/>
    <path d="M536.3963,288.2116q4.1573,0,5.8887,1.793,1.7313,1.7914,1.7314,6.0693t-1.7314,6.0391q-1.7329,1.7622-5.8887,1.7617-4.1865,0-5.919-1.7617t-1.7314-6.0391q0-4.3081,1.7314-6.085T536.3963,288.2116Zm0,3.3438a2.6711,2.6711,0,0,0-2.38.9033,7.2631,7.2631,0,0,0-.6025,3.6152,7.0872,7.0872,0,0,0,.6025,3.5537,2.6711,2.6711,0,0,0,2.38.9033,2.6371,2.6371,0,0,0,2.334-.9033,6.9294,6.9294,0,0,0,.6181-3.5537,7.27,7.27,0,0,0-.6025-3.6A2.616,2.616,0,0,0,536.3963,291.5554Z"/>
    <path d="M550.6736,288.6335l.3311,2.1689a6.9251,6.9251,0,0,1,2.5752-1.8379,8.1947,8.1947,0,0,1,3.3281-.7226q5.1211,0,5.1211,7.9521,0,4.2774-1.3711,5.9785a5.1843,5.1843,0,0,1-4.292,1.7022,8.1434,8.1434,0,0,1-4.97-1.4463,23.8264,23.8264,0,0,1,.09,3.1934v3.5839h-4.4277V288.6335Zm.8125,4.5185v6.8067a15.6292,15.6292,0,0,0,3.374.6025,2.26,2.26,0,0,0,2.0333-.8428,7.2834,7.2834,0,0,0,.5566-3.5244,8.1847,8.1847,0,0,0-.5117-3.539,1.8915,1.8915,0,0,0-1.8067-.919A7.1335,7.1335,0,0,0,551.4861,293.152Z"/>
    <path d="M568.6853,288.6335l.3008,2.1689a8.4712,8.4712,0,0,1,5.6631-2.5908q3.0117,0,3.8252,2.41a7.9876,7.9876,0,0,1,5.4219-2.41,3.6979,3.6979,0,0,1,4.1269,4.127v11.1445h-4.4277v-9.7588a2.1255,2.1255,0,0,0-.332-1.3555,1.566,1.566,0,0,0-1.2344-.3916,3.6241,3.6241,0,0,0-1.3857.2705,14.5191,14.5191,0,0,0-1.9278,1.0547v10.1807h-4.2773v-9.7588a1.9413,1.9413,0,0,0-.376-1.3555,1.6376,1.6376,0,0,0-1.2207-.3916,7.0782,7.0782,0,0,0-3.2832,1.2949v10.211h-4.4277v-14.85Z"/>
    <path d="M601.034,297.55h-5.3614a3.075,3.075,0,0,0,.98,2.1836,4.4337,4.4337,0,0,0,2.545.5576,53.8144,53.8144,0,0,0,5.542-.332l.4218,2.7715a15.2614,15.2614,0,0,1-6.4756,1.1142q-4.1878,0-5.9638-1.8066-1.7784-1.8077-1.7774-5.9639,0-4.3681,1.7315-6.1152t5.8281-1.7471q3.7061,0,5.3623,1.28a4.6982,4.6982,0,0,1,1.6865,3.9,4.1632,4.1632,0,0,1-1.0693,3.1181A4.823,4.823,0,0,1,601.034,297.55Zm-5.4512-2.6807H599.8a1.291,1.291,0,0,0,1.1-.3916,1.9271,1.9271,0,0,0,.2861-1.1445,1.72,1.72,0,0,0-.5429-1.4609,3.4846,3.4846,0,0,0-1.9873-.4073,3.1749,3.1749,0,0,0-2.35.6778A4.4591,4.4591,0,0,0,595.5828,294.8688Z"/>
    <path d="M612.0584,288.6335l.331,2.1992a10.1342,10.1342,0,0,1,6.3555-2.6211,4.2147,4.2147,0,0,1,3.0869,1.0547,4.1283,4.1283,0,0,1,1.0694,3.0723v11.1445h-4.4278v-9.7588a2.196,2.196,0,0,0-.3164-1.3711,1.4123,1.4123,0,0,0-1.1289-.376,10.3973,10.3973,0,0,0-4.1269,1.3555v10.15h-4.458v-14.85Z"/>
    <path d="M632.2684,291.6159v7.0176a1.5488,1.5488,0,0,0,.3623,1.1748,1.8677,1.8677,0,0,0,1.2646.331h1.8975l.4824,3.1026a12.74,12.74,0,0,1-4.1875.6025,4.1972,4.1972,0,0,1-3.1318-1.13,4.2864,4.2864,0,0,1-1.1153-3.1474v-7.9512h-2.62v-2.832l2.62-.15v-4.1563h4.4278v4.1563h4.1269v2.9824Z"/>
  </g>
  <rect x="536.9254" y="373.9338" width="271.9927" height="57.7199" rx="20"/>
  <g>
    <path class="e" d="M636.6707,396.9938h-6.2051v17.0479h-4.6084V396.9938h-6.2051v-3.7353h17.0186Z"/>
    <path class="e" d="M645.4656,408.1081h-5.3613a3.0746,3.0746,0,0,0,.98,2.1836,4.4333,4.4333,0,0,0,2.5449.5576,53.8427,53.8427,0,0,0,5.542-.332l.4219,2.7715a15.262,15.262,0,0,1-6.4756,1.1142q-4.188,0-5.9639-1.8066-1.7783-1.8077-1.7773-5.9639,0-4.3682,1.7314-6.1152t5.8281-1.7471q3.706,0,5.3623,1.28a4.698,4.698,0,0,1,1.6866,3.9,4.1633,4.1633,0,0,1-1.0694,3.1181A4.8228,4.8228,0,0,1,645.4656,408.1081Zm-5.4512-2.6807h4.2168a1.2913,1.2913,0,0,0,1.1-.3916,1.9271,1.9271,0,0,0,.2861-1.1445,1.72,1.72,0,0,0-.543-1.4609,3.4842,3.4842,0,0,0-1.9873-.4073,3.1752,3.1752,0,0,0-2.35.6778A4.4591,4.4591,0,0,0,640.0144,405.4274Z"/>
    <path class="e" d="M659.4715,408.53l-3.7051-.9942a5.329,5.329,0,0,1-2.8311-1.6416,4.6839,4.6839,0,0,1-.7832-2.8769,3.6667,3.6667,0,0,1,1.4307-3.2832q1.4311-.9624,4.8945-.9639a43.5034,43.5034,0,0,1,6.8682.5723l-.3018,2.8623q-3.7953-.06-5.7226-.0606-1.0546,0-1.461.0147a4.6437,4.6437,0,0,0-.8134.1054q-.4058.0909-.4971.2862a1.4823,1.4823,0,0,0-.09.5879,2.2425,2.2425,0,0,0,.0146.2705.5987.5987,0,0,0,.0752.2265,1.5619,1.5619,0,0,0,.1055.1651.6087.6087,0,0,0,.166.1357,1.2364,1.2364,0,0,0,.1953.1055c.0508.0205.1406.0556.2715.1054s.2305.086.3008.1055.2011.0557.3916.1055.3369.0859.4375.1055l3.7949,1.0234a5.9288,5.9288,0,0,1,2.831,1.5215,4.122,4.122,0,0,1,.8438,2.8164q0,2.6514-1.5361,3.6t-5.2715.9482a40.2591,40.2591,0,0,1-6.6563-.5117l.2705-2.8916q1.0856.06,5.1514.0606a14.3082,14.3082,0,0,0,3.0264-.1963.8724.8724,0,0,0,.708-.919,2.2517,2.2517,0,0,0-.0147-.27.6141.6141,0,0,0-.0752-.2256.8208.8208,0,0,0-.1211-.166.9442.9442,0,0,0-.1953-.1357q-.1362-.0747-.2109-.12a1.8922,1.8922,0,0,0-.2861-.1211q-.2111-.0747-.3311-.1055-.1216-.0292-.4219-.1055A3.751,3.751,0,0,1,659.4715,408.53Z"/>
    <path class="e" d="M674.531,402.1745v7.0176a1.5488,1.5488,0,0,0,.3624,1.1748,1.8677,1.8677,0,0,0,1.2646.331h1.8975l.4824,3.1026a12.74,12.74,0,0,1-4.1875.6025,4.1976,4.1976,0,0,1-3.1319-1.13,4.2867,4.2867,0,0,1-1.1152-3.1474v-7.9512h-2.62v-2.832l2.62-.15v-4.1563h4.4277v4.1563h4.127v2.9824Z"/>
    <path class="e" d="M682.4539,392.6257h1.9873a1.1459,1.1459,0,0,1,1.2959,1.2959v1.6259a1.1453,1.1453,0,0,1-1.2959,1.295h-1.9873a1.1449,1.1449,0,0,1-1.2959-1.295v-1.6259A1.1455,1.1455,0,0,1,682.4539,392.6257Zm3.2227,21.416h-4.4278v-14.85h4.4278Z"/>
    <path class="e" d="M693.0555,399.1921l.331,2.1992a10.1342,10.1342,0,0,1,6.3555-2.6211,4.2147,4.2147,0,0,1,3.0869,1.0547,4.1281,4.1281,0,0,1,1.0693,3.0722v11.1446h-4.4277v-9.7588a2.1966,2.1966,0,0,0-.3164-1.3711,1.4124,1.4124,0,0,0-1.1289-.376,10.3981,10.3981,0,0,0-4.127,1.3555v10.15H689.44v-14.85Z"/>
    <path class="e" d="M722.4832,401.15l-1.8682.2412a5.4582,5.4582,0,0,1,.3614,2.1387,4.1678,4.1678,0,0,1-1.5508,3.6748q-1.5513,1.0839-5.4365,1.084a21.6193,21.6193,0,0,1-2.5606-.15,1.0724,1.0724,0,0,0-.1357,1.0839,1.1,1.1,0,0,0,1.0088.6924l5.3916.6328a5.3248,5.3248,0,0,1,3.2988,1.3252,4.3267,4.3267,0,0,1,1.0088,3.1026q0,2.8315-1.7022,3.8252t-6.0986.9941q-4.5791,0-6.2051-.9482a3.6818,3.6818,0,0,1-1.6269-3.48,3.16,3.16,0,0,1,.5273-1.8828,4.55,4.55,0,0,1,1.8223-1.34,2.99,2.99,0,0,1,.4824-4.5781q-2.2-1.0239-2.1992-4.0068a4.1817,4.1817,0,0,1,1.5664-3.7041q1.5658-1.0856,5.4512-1.085a14.9745,14.9745,0,0,1,3.8857.4219h4.7891Zm-7.169,12.3193-3.7353-.3916a2.22,2.22,0,0,0-.9639,1.7168q0,1.084.6631,1.3858a13.6326,13.6326,0,0,0,5.7676-.0157,1.2833,1.2833,0,0,0,.708-1.3095q0-.7838-.4521-.9942A8.0084,8.0084,0,0,0,715.3142,413.4694Zm-1.3251-8.0117a4.24,4.24,0,0,0,2.2431-.4219,1.693,1.693,0,0,0,.6182-1.5058,1.6689,1.6689,0,0,0-.6026-1.5069,4.52,4.52,0,0,0-2.2587-.3916,4.6125,4.6125,0,0,0-2.2745.3916,1.649,1.649,0,0,0-.6171,1.5069,1.6926,1.6926,0,0,0,.6171,1.5058A4.3231,4.3231,0,0,0,713.9891,405.4577Z"/>
  </g>
  <rect class="d" x="665.3133" y="481.4751" width="271.9927" height="57.7199"/>
  <g>
    <path class="e" d="M694.1844,521.5837h-4.5782V500.8005h4.5782Z"/>
    <path class="e" d="M701.6844,506.7341l.3007,2.1689a8.4707,8.4707,0,0,1,5.6631-2.5908q3.0117,0,3.8252,2.41a7.9879,7.9879,0,0,1,5.4219-2.41,3.6979,3.6979,0,0,1,4.127,4.1269v11.1446h-4.4278v-9.7588a2.1255,2.1255,0,0,0-.332-1.3555,1.5659,1.5659,0,0,0-1.2344-.3916,3.6241,3.6241,0,0,0-1.3857.27,14.5072,14.5072,0,0,0-1.9278,1.0547v10.1807h-4.2773v-9.7588a1.9413,1.9413,0,0,0-.376-1.3555,1.6374,1.6374,0,0,0-1.2207-.3916,7.0782,7.0782,0,0,0-3.2832,1.2949v10.211H698.13v-14.85Z"/>
    <path class="e" d="M728.19,506.7341l.3311,2.1689a6.9237,6.9237,0,0,1,2.5752-1.8379,8.1947,8.1947,0,0,1,3.3281-.7226q5.1211,0,5.1211,7.9521,0,4.2774-1.3711,5.9785a5.1843,5.1843,0,0,1-4.292,1.7022,8.1434,8.1434,0,0,1-4.97-1.4463,23.8254,23.8254,0,0,1,.09,3.1933v3.584H724.575V506.7341Zm.8125,4.5185v6.8067a15.6292,15.6292,0,0,0,3.374.6025,2.26,2.26,0,0,0,2.0333-.8428,7.2834,7.2834,0,0,0,.5566-3.5244,8.1853,8.1853,0,0,0-.5117-3.5391,1.8914,1.8914,0,0,0-1.8067-.9189A7.1335,7.1335,0,0,0,729.0027,511.2526Z"/>
    <path class="e" d="M747.1053,500.5v16.2344q0,1.5072,1.6875,1.5058h1.2041l.5127,3.1026a7.9785,7.9785,0,0,1-3.5547.6025,4.4087,4.4087,0,0,1-3.1328-1.0693,3.9394,3.9394,0,0,1-1.1446-3.0274V500.5Z"/>
    <path class="e" d="M761.9549,515.65h-5.3614a3.075,3.075,0,0,0,.98,2.1836,4.4345,4.4345,0,0,0,2.545.5576,53.8427,53.8427,0,0,0,5.542-.332l.4218,2.7714a15.26,15.26,0,0,1-6.4756,1.1143q-4.188,0-5.9638-1.8066-1.7784-1.8076-1.7774-5.9639,0-4.3681,1.7315-6.1152t5.8281-1.7471q3.7061,0,5.3623,1.28a4.6982,4.6982,0,0,1,1.6865,3.9,4.1632,4.1632,0,0,1-1.0693,3.1181A4.823,4.823,0,0,1,761.9549,515.65Zm-5.4512-2.6807h4.2168a1.291,1.291,0,0,0,1.1-.3916,1.9271,1.9271,0,0,0,.2861-1.1445,1.72,1.72,0,0,0-.5429-1.461,3.4856,3.4856,0,0,0-1.9873-.4072,3.1749,3.1749,0,0,0-2.35.6778A4.4591,4.4591,0,0,0,756.5037,512.9694Z"/>
    <path class="e" d="M772.9187,506.7341l.3008,2.1689a8.4707,8.4707,0,0,1,5.6631-2.5908q3.0117,0,3.8252,2.41a7.9879,7.9879,0,0,1,5.4219-2.41,3.6979,3.6979,0,0,1,4.1269,4.1269v11.1446h-4.4277v-9.7588a2.1255,2.1255,0,0,0-.332-1.3555,1.566,1.566,0,0,0-1.2344-.3916,3.625,3.625,0,0,0-1.3858.27,14.5138,14.5138,0,0,0-1.9277,1.0547v10.1807h-4.2773v-9.7588a1.9413,1.9413,0,0,0-.376-1.3555,1.6376,1.6376,0,0,0-1.2207-.3916,7.0782,7.0782,0,0,0-3.2832,1.2949v10.211h-4.4277v-14.85Z"/>
    <path class="e" d="M805.2674,515.65H799.906a3.075,3.075,0,0,0,.98,2.1836,4.4345,4.4345,0,0,0,2.545.5576,53.8427,53.8427,0,0,0,5.542-.332l.4218,2.7714a15.26,15.26,0,0,1-6.4756,1.1143q-4.188,0-5.9638-1.8066-1.7784-1.8076-1.7774-5.9639,0-4.3681,1.7315-6.1152t5.8281-1.7471q3.7061,0,5.3623,1.28a4.6982,4.6982,0,0,1,1.6865,3.9,4.1632,4.1632,0,0,1-1.0693,3.1181A4.823,4.823,0,0,1,805.2674,515.65Zm-5.4512-2.6807h4.2168a1.291,1.291,0,0,0,1.1-.3916,1.9271,1.9271,0,0,0,.2861-1.1445,1.72,1.72,0,0,0-.5429-1.461,3.4856,3.4856,0,0,0-1.9873-.4072,3.1749,3.1749,0,0,0-2.35.6778A4.4591,4.4591,0,0,0,799.8162,512.9694Z"/>
    <path class="e" d="M816.2918,506.7341l.331,2.1992a10.1342,10.1342,0,0,1,6.3555-2.6211,4.2147,4.2147,0,0,1,3.0869,1.0547,4.1282,4.1282,0,0,1,1.0694,3.0722v11.1446h-4.4278v-9.7588a2.1958,2.1958,0,0,0-.3164-1.3711,1.4123,1.4123,0,0,0-1.1289-.376,10.3973,10.3973,0,0,0-4.1269,1.3555v10.15h-4.458v-14.85Z"/>
    <path class="e" d="M836.5017,509.7165v7.0176a1.5488,1.5488,0,0,0,.3624,1.1748,1.8683,1.8683,0,0,0,1.2646.331h1.8975l.4824,3.1026a12.74,12.74,0,0,1-4.1875.6025,4.1976,4.1976,0,0,1-3.1319-1.13,4.2867,4.2867,0,0,1-1.1152-3.1474v-7.9512h-2.62v-2.832l2.62-.15v-4.1563h4.4277v4.1563h4.127v2.9824Z"/>
    <path class="e" d="M843.49,510.0475l-.4209-3.0117a43.5227,43.5227,0,0,1,7.74-.7236,6.6809,6.6809,0,0,1,4.4277,1.2207q1.4164,1.2188,1.416,4.2314v9.8194h-3.5244l-.4512-2.2588a6.9279,6.9279,0,0,1-5.4824,2.62,5.2716,5.2716,0,0,1-3.4941-1.13,3.8723,3.8723,0,0,1-1.3555-3.1474v-1.5059a3.3911,3.3911,0,0,1,1.2051-2.77,5.1028,5.1028,0,0,1,3.3437-.9942h5.3008v-.663a1.9567,1.9567,0,0,0-.5273-1.5362,3.2861,3.2861,0,0,0-1.9121-.3916Q847.286,509.8063,843.49,510.0475Zm3.2539,6.4454v.5722q0,1.5366,1.7461,1.5362a6.1471,6.1471,0,0,0,3.7051-1.4454v-2.0781h-4.0059A1.2809,1.2809,0,0,0,846.7439,516.4929Z"/>
    <path class="e" d="M865.96,509.7165v7.0176a1.5492,1.5492,0,0,0,.3623,1.1748,1.8683,1.8683,0,0,0,1.2646.331h1.8975l.4824,3.1026a12.74,12.74,0,0,1-4.1875.6025,4.1972,4.1972,0,0,1-3.1318-1.13,4.2864,4.2864,0,0,1-1.1153-3.1474v-7.9512h-2.62v-2.832l2.62-.15v-4.1563H865.96v4.1563h4.1269v2.9824Z"/>
    <path class="e" d="M873.8826,500.1677H875.87a1.1459,1.1459,0,0,1,1.2959,1.2959V503.09a1.1453,1.1453,0,0,1-1.2959,1.295h-1.9873a1.1449,1.1449,0,0,1-1.2959-1.295v-1.6259A1.1456,1.1456,0,0,1,873.8826,500.1677Zm3.2227,21.416h-4.4278v-14.85h4.4278Z"/>
    <path class="e" d="M887.8875,506.3122q4.1572,0,5.8887,1.793,1.7314,1.7914,1.7314,6.0693t-1.7314,6.0391q-1.733,1.7622-5.8887,1.7617-4.1865,0-5.919-1.7617t-1.7314-6.0391q0-4.3081,1.7314-6.085T887.8875,506.3122Zm0,3.3437a2.6712,2.6712,0,0,0-2.38.9034,7.2631,7.2631,0,0,0-.6025,3.6152,7.0872,7.0872,0,0,0,.6025,3.5537,2.6714,2.6714,0,0,0,2.38.9033,2.6374,2.6374,0,0,0,2.334-.9033,6.9294,6.9294,0,0,0,.6181-3.5537,7.27,7.27,0,0,0-.6025-3.6A2.6158,2.6158,0,0,0,887.8875,509.6559Z"/>
    <path class="e" d="M902.1648,506.7341l.3311,2.1992a10.134,10.134,0,0,1,6.3555-2.6211,4.2147,4.2147,0,0,1,3.0869,1.0547,4.1281,4.1281,0,0,1,1.0693,3.0722v11.1446H908.58v-9.7588a2.1964,2.1964,0,0,0-.3164-1.3711,1.4124,1.4124,0,0,0-1.1289-.376,10.3971,10.3971,0,0,0-4.127,1.3555v10.15H898.55v-14.85Z"/>
  </g>
</svg>
